<svg xmlns="http://www.w3.org/2000/svg" width="1200" height="675" viewBox="0 0 1200 675" role="img" aria-label="Studio Baggio"><rect width="1200" height="675" fill="#ffffff"/><g transform="translate(68 292) scale(0.21739130434782608)"><path fill="#111111" transform="translate(-52.0 0) scale(1 -1)" d="M314 704Q417 704 476.0 648.0Q535 592 545 499H453Q447 565 409.5 600.5Q372 636 307 636Q249 636 212.5 609.0Q176 582 176 530Q176 475 209.5 446.0Q243 417 324 399Q441 372 496.5 321.5Q552 271 552 185Q552 96 484.5 41.0Q417 -14 315 -14Q201 -14 132.0 41.0Q63 96 52 196H144Q159 128 204.0 91.0Q249 54 317 54Q378 54 419.0 85.0Q460 116 460 169Q460 231 421.5 264.5Q383 298 291 319Q191 342 137.5 386.0Q84 430 84 510Q84 597 150.0 650.5Q216 704 314 704Z"/><path fill="#111111" transform="translate(576.0 0) scale(1 -1)" d="M612 620H366V0H280V620H34V690H612Z"/><path fill="#111111" transform="translate(1204.0 0) scale(1 -1)" d="M612 690V255Q612 213 610 193Q602 101 537.5 43.5Q473 -14 353.0 -14.0Q233 -14 168.5 43.5Q104 101 96 193Q94 213 94 255V690H180V263Q180 220 182 202Q188 134 232.0 94.0Q276 54 353.0 54.0Q430 54 474.0 94.0Q518 134 524 202Q526 220 526 263V690Z"/><path fill="#111111" transform="translate(1826.0 0) scale(1 -1)" d="M398 686Q523 670 597.0 586.0Q671 502 671 353Q671 205 594.0 112.0Q517 19 393 4Q358 0 305 0H100V690H310Q363 690 398 686ZM384 75Q474 90 525.5 161.5Q577 233 577 353Q577 466 527.5 533.5Q478 601 389 615Q362 620 305 620H186V70H300Q356 70 384 75Z"/><path fill="#111111" transform="translate(2507.0 0) scale(1 -1)" d="M186 0H100V690H186Z"/><path fill="#111111" transform="translate(2756.0 0) scale(1 -1)" d="M699 345Q699 184 613.0 85.0Q527 -14 373.0 -14.0Q219 -14 133.0 85.0Q47 184 47 345Q47 507 133.0 605.5Q219 704 373.0 704.0Q527 704 613.0 605.5Q699 507 699 345ZM603 345Q603 481 542.0 558.5Q481 636 373.0 636.0Q265 636 204.0 558.5Q143 481 143 345Q143 210 204.0 132.0Q265 54 373.0 54.0Q481 54 542.0 132.0Q603 210 603 345Z"/></g><g transform="translate(68 462) scale(0.21739130434782608)"><path fill="#111111" transform="translate(-100.0 0) scale(1 -1)" d="M446 367Q517 351 552.5 311.5Q588 272 588 203Q588 115 537.0 66.0Q486 17 410 5Q376 0 322 0H100V690H303Q360 690 393 686Q563 663 563 518Q563 407 446 367ZM186 620V393H319Q347 393 374 397Q471 412 471 511Q471 606 365 618Q347 620 310 620ZM383 72Q434 77 465.0 108.0Q496 139 496 194Q496 304 384 319Q353 323 329 323H186V70H335Q357 70 383 72Z"/><path fill="#111111" transform="translate(569.0 0) scale(1 -1)" d="M456 244H202L121 0H29L277 690H393L631 0H538ZM226 314H433L333 622Z"/><path fill="#111111" transform="translate(1263.0 0) scale(1 -1)" d="M399 333H646V0H570V120L539 56Q477 -14 360 -14Q213 -14 130.0 86.0Q47 186 47 342Q47 501 137.0 602.5Q227 704 373 704Q500 704 571.5 640.0Q643 576 654 470L655 460H569L567 470Q533 636 371 636Q267 636 205.0 554.5Q143 473 143 346Q143 217 203.5 135.5Q264 54 365 54Q449 54 504.5 112.5Q560 171 560 263H399Z"/><path fill="#111111" transform="translate(1981.0 0) scale(1 -1)" d="M399 333H646V0H570V120L539 56Q477 -14 360 -14Q213 -14 130.0 86.0Q47 186 47 342Q47 501 137.0 602.5Q227 704 373 704Q500 704 571.5 640.0Q643 576 654 470L655 460H569L567 470Q533 636 371 636Q267 636 205.0 554.5Q143 473 143 346Q143 217 203.5 135.5Q264 54 365 54Q449 54 504.5 112.5Q560 171 560 263H399Z"/><path fill="#111111" transform="translate(2646.0 0) scale(1 -1)" d="M186 0H100V690H186Z"/><path fill="#111111" transform="translate(2895.0 0) scale(1 -1)" d="M699 345Q699 184 613.0 85.0Q527 -14 373.0 -14.0Q219 -14 133.0 85.0Q47 184 47 345Q47 507 133.0 605.5Q219 704 373.0 704.0Q527 704 613.0 605.5Q699 507 699 345ZM603 345Q603 481 542.0 558.5Q481 636 373.0 636.0Q265 636 204.0 558.5Q143 481 143 345Q143 210 204.0 132.0Q265 54 373.0 54.0Q481 54 542.0 132.0Q603 210 603 345Z"/></g><rect x="886.3" y="409.8" width="52.2" height="52.2" fill="#2563eb"/><g transform="translate(963.5 74)"><g transform="translate(0 0) scale(0.020289855072463767)"><path fill="#111111" transform="translate(-52.0 0) scale(1 -1)" d="M314 704Q417 704 476.0 648.0Q535 592 545 499H453Q447 565 409.5 600.5Q372 636 307 636Q249 636 212.5 609.0Q176 582 176 530Q176 475 209.5 446.0Q243 417 324 399Q441 372 496.5 321.5Q552 271 552 185Q552 96 484.5 41.0Q417 -14 315 -14Q201 -14 132.0 41.0Q63 96 52 196H144Q159 128 204.0 91.0Q249 54 317 54Q378 54 419.0 85.0Q460 116 460 169Q460 231 421.5 264.5Q383 298 291 319Q191 342 137.5 386.0Q84 430 84 510Q84 597 150.0 650.5Q216 704 314 704Z"/><path fill="#111111" transform="translate(576.0 0) scale(1 -1)" d="M612 620H366V0H280V620H34V690H612Z"/><path fill="#111111" transform="translate(1204.0 0) scale(1 -1)" d="M612 690V255Q612 213 610 193Q602 101 537.5 43.5Q473 -14 353.0 -14.0Q233 -14 168.5 43.5Q104 101 96 193Q94 213 94 255V690H180V263Q180 220 182 202Q188 134 232.0 94.0Q276 54 353.0 54.0Q430 54 474.0 94.0Q518 134 524 202Q526 220 526 263V690Z"/><path fill="#111111" transform="translate(1826.0 0) scale(1 -1)" d="M398 686Q523 670 597.0 586.0Q671 502 671 353Q671 205 594.0 112.0Q517 19 393 4Q358 0 305 0H100V690H310Q363 690 398 686ZM384 75Q474 90 525.5 161.5Q577 233 577 353Q577 466 527.5 533.5Q478 601 389 615Q362 620 305 620H186V70H300Q356 70 384 75Z"/><path fill="#111111" transform="translate(2507.0 0) scale(1 -1)" d="M186 0H100V690H186Z"/><path fill="#111111" transform="translate(2756.0 0) scale(1 -1)" d="M699 345Q699 184 613.0 85.0Q527 -14 373.0 -14.0Q219 -14 133.0 85.0Q47 184 47 345Q47 507 133.0 605.5Q219 704 373.0 704.0Q527 704 613.0 605.5Q699 507 699 345ZM603 345Q603 481 542.0 558.5Q481 636 373.0 636.0Q265 636 204.0 558.5Q143 481 143 345Q143 210 204.0 132.0Q265 54 373.0 54.0Q481 54 542.0 132.0Q603 210 603 345Z"/><path fill="#111111" transform="translate(3465.0 0) scale(1 -1)" d="M446 367Q517 351 552.5 311.5Q588 272 588 203Q588 115 537.0 66.0Q486 17 410 5Q376 0 322 0H100V690H303Q360 690 393 686Q563 663 563 518Q563 407 446 367ZM186 620V393H319Q347 393 374 397Q471 412 471 511Q471 606 365 618Q347 620 310 620ZM383 72Q434 77 465.0 108.0Q496 139 496 194Q496 304 384 319Q353 323 329 323H186V70H335Q357 70 383 72Z"/><path fill="#111111" transform="translate(4134.0 0) scale(1 -1)" d="M456 244H202L121 0H29L277 690H393L631 0H538ZM226 314H433L333 622Z"/><path fill="#111111" transform="translate(4828.0 0) scale(1 -1)" d="M399 333H646V0H570V120L539 56Q477 -14 360 -14Q213 -14 130.0 86.0Q47 186 47 342Q47 501 137.0 602.5Q227 704 373 704Q500 704 571.5 640.0Q643 576 654 470L655 460H569L567 470Q533 636 371 636Q267 636 205.0 554.5Q143 473 143 346Q143 217 203.5 135.5Q264 54 365 54Q449 54 504.5 112.5Q560 171 560 263H399Z"/><path fill="#111111" transform="translate(5546.0 0) scale(1 -1)" d="M399 333H646V0H570V120L539 56Q477 -14 360 -14Q213 -14 130.0 86.0Q47 186 47 342Q47 501 137.0 602.5Q227 704 373 704Q500 704 571.5 640.0Q643 576 654 470L655 460H569L567 470Q533 636 371 636Q267 636 205.0 554.5Q143 473 143 346Q143 217 203.5 135.5Q264 54 365 54Q449 54 504.5 112.5Q560 171 560 263H399Z"/><path fill="#111111" transform="translate(6211.0 0) scale(1 -1)" d="M186 0H100V690H186Z"/><path fill="#111111" transform="translate(6460.0 0) scale(1 -1)" d="M699 345Q699 184 613.0 85.0Q527 -14 373.0 -14.0Q219 -14 133.0 85.0Q47 184 47 345Q47 507 133.0 605.5Q219 704 373.0 704.0Q527 704 613.0 605.5Q699 507 699 345ZM603 345Q603 481 542.0 558.5Q481 636 373.0 636.0Q265 636 204.0 558.5Q143 481 143 345Q143 210 204.0 132.0Q265 54 373.0 54.0Q481 54 542.0 132.0Q603 210 603 345Z"/><path fill="#111111" transform="translate(7232.0 0) scale(1 -1)" d="M55.0 96.0Q73 114 101.0 114.0Q129 114 147.0 96.0Q165 78 165.0 50.0Q165 22 147.0 4.0Q129 -14 101.0 -14.0Q73 -14 55.0 4.0Q37 22 37.0 50.0Q37 78 55.0 96.0Z"/><path fill="#111111" transform="translate(7478.0 0) scale(1 -1)" d="M456 244H202L121 0H29L277 690H393L631 0H538ZM226 314H433L333 622Z"/><path fill="#111111" transform="translate(8119.0 0) scale(1 -1)" d="M186 0H100V690H186Z"/></g></g><line x1="68" y1="530" x2="1132" y2="530" stroke="#d8d8d8"/><g transform="translate(68 592) scale(0.028985507246376812)"><path fill="#111111" transform="translate(-29.0 0) scale(1 -1)" d="M456 244H202L121 0H29L277 690H393L631 0H538ZM226 314H433L333 622Z"/><path fill="#111111" transform="translate(612.0 0) scale(1 -1)" d="M186 0H100V690H186Z"/><path fill="#111111" transform="translate(876.0 0) scale(1 -1)" d="M242 255H32V311H242Z"/><path fill="#111111" transform="translate(1128.0 0) scale(1 -1)" d="M559 70V0H100V690H549V620H186V380H519V310H186V70Z"/><path fill="#111111" transform="translate(1697.0 0) scale(1 -1)" d="M640 0H508L183 606Q186 484 186 345V0H100V690H232L557 84Q554 205 554 345V690H638Z"/><path fill="#111111" transform="translate(2418.0 0) scale(1 -1)" d="M456 244H202L121 0H29L277 690H393L631 0H538ZM226 314H433L333 622Z"/><path fill="#111111" transform="translate(3059.0 0) scale(1 -1)" d="M446 367Q517 351 552.5 311.5Q588 272 588 203Q588 115 537.0 66.0Q486 17 410 5Q376 0 322 0H100V690H303Q360 690 393 686Q563 663 563 518Q563 407 446 367ZM186 620V393H319Q347 393 374 397Q471 412 471 511Q471 606 365 618Q347 620 310 620ZM383 72Q434 77 465.0 108.0Q496 139 496 194Q496 304 384 319Q353 323 329 323H186V70H335Q357 70 383 72Z"/><path fill="#111111" transform="translate(3657.0 0) scale(1 -1)" d="M559 70V0H100V690H186V70Z"/><path fill="#111111" transform="translate(4226.0 0) scale(1 -1)" d="M559 70V0H100V690H549V620H186V380H519V310H186V70Z"/><path fill="#111111" transform="translate(4795.0 0) scale(1 -1)" d="M398 686Q523 670 597.0 586.0Q671 502 671 353Q671 205 594.0 112.0Q517 19 393 4Q358 0 305 0H100V690H310Q363 690 398 686ZM384 75Q474 90 525.5 161.5Q577 233 577 353Q577 466 527.5 533.5Q478 601 389 615Q362 620 305 620H186V70H300Q356 70 384 75Z"/><path fill="#111111" transform="translate(5829.0 0) scale(1 -1)" d="M399 333H646V0H570V120L539 56Q477 -14 360 -14Q213 -14 130.0 86.0Q47 186 47 342Q47 501 137.0 602.5Q227 704 373 704Q500 704 571.5 640.0Q643 576 654 470L655 460H569L567 470Q533 636 371 636Q267 636 205.0 554.5Q143 473 143 346Q143 217 203.5 135.5Q264 54 365 54Q449 54 504.5 112.5Q560 171 560 263H399Z"/><path fill="#111111" transform="translate(6494.0 0) scale(1 -1)" d="M554 181Q566 45 600 0H505Q480 57 468 173Q455 289 365 296Q349 297 316 297H186V0H100V690H326Q385 690 416 686Q496 676 542.0 630.5Q588 585 588 502Q588 438 553.0 397.0Q518 356 465 339Q543 303 554 181ZM186 367H318Q366 367 385 369Q435 374 465.5 406.0Q496 438 496 494Q496 600 395 616Q370 620 326 620H186Z"/><path fill="#111111" transform="translate(7157.0 0) scale(1 -1)" d="M699 345Q699 184 613.0 85.0Q527 -14 373.0 -14.0Q219 -14 133.0 85.0Q47 184 47 345Q47 507 133.0 605.5Q219 704 373.0 704.0Q527 704 613.0 605.5Q699 507 699 345ZM603 345Q603 481 542.0 558.5Q481 636 373.0 636.0Q265 636 204.0 558.5Q143 481 143 345Q143 210 204.0 132.0Q265 54 373.0 54.0Q481 54 542.0 132.0Q603 210 603 345Z"/><path fill="#111111" transform="translate(7940.0 0) scale(1 -1)" d="M945 690 753 0H640L484 595L322 0H208L26 690H124L269 77L429 680H545L701 76L854 690Z"/><path fill="#111111" transform="translate(8961.0 0) scale(1 -1)" d="M612 620H366V0H280V620H34V690H612Z"/><path fill="#111111" transform="translate(9583.0 0) scale(1 -1)" d="M652 690V0H566V302H186V0H100V690H186V374H566V690Z"/><path fill="#111111" transform="translate(10593.0 0) scale(1 -1)" d="M314 704Q417 704 476.0 648.0Q535 592 545 499H453Q447 565 409.5 600.5Q372 636 307 636Q249 636 212.5 609.0Q176 582 176 530Q176 475 209.5 446.0Q243 417 324 399Q441 372 496.5 321.5Q552 271 552 185Q552 96 484.5 41.0Q417 -14 315 -14Q201 -14 132.0 41.0Q63 96 52 196H144Q159 128 204.0 91.0Q249 54 317 54Q378 54 419.0 85.0Q460 116 460 169Q460 231 421.5 264.5Q383 298 291 319Q191 342 137.5 386.0Q84 430 84 510Q84 597 150.0 650.5Q216 704 314 704Z"/><path fill="#111111" transform="translate(11236.0 0) scale(1 -1)" d="M349 272V0H263V272L19 690H118L310 355L496 690H593Z"/><path fill="#111111" transform="translate(11887.0 0) scale(1 -1)" d="M314 704Q417 704 476.0 648.0Q535 592 545 499H453Q447 565 409.5 600.5Q372 636 307 636Q249 636 212.5 609.0Q176 582 176 530Q176 475 209.5 446.0Q243 417 324 399Q441 372 496.5 321.5Q552 271 552 185Q552 96 484.5 41.0Q417 -14 315 -14Q201 -14 132.0 41.0Q63 96 52 196H144Q159 128 204.0 91.0Q249 54 317 54Q378 54 419.0 85.0Q460 116 460 169Q460 231 421.5 264.5Q383 298 291 319Q191 342 137.5 386.0Q84 430 84 510Q84 597 150.0 650.5Q216 704 314 704Z"/><path fill="#111111" transform="translate(12515.0 0) scale(1 -1)" d="M612 620H366V0H280V620H34V690H612Z"/><path fill="#111111" transform="translate(13137.0 0) scale(1 -1)" d="M559 70V0H100V690H549V620H186V380H519V310H186V70Z"/><path fill="#111111" transform="translate(13706.0 0) scale(1 -1)" d="M788 690V0H702V355Q702 537 704 612Q669 498 620 356L498 0H390L266 358Q211 518 184 610Q186 535 186 355V0H100V690H242L446 73L649 690Z"/><path fill="#111111" transform="translate(14552.0 0) scale(1 -1)" d="M314 704Q417 704 476.0 648.0Q535 592 545 499H453Q447 565 409.5 600.5Q372 636 307 636Q249 636 212.5 609.0Q176 582 176 530Q176 475 209.5 446.0Q243 417 324 399Q441 372 496.5 321.5Q552 271 552 185Q552 96 484.5 41.0Q417 -14 315 -14Q201 -14 132.0 41.0Q63 96 52 196H144Q159 128 204.0 91.0Q249 54 317 54Q378 54 419.0 85.0Q460 116 460 169Q460 231 421.5 264.5Q383 298 291 319Q191 342 137.5 386.0Q84 430 84 510Q84 597 150.0 650.5Q216 704 314 704Z"/><path fill="#111111" transform="translate(15414.0 0) scale(1 -1)" d="M186 620V380H509V310H186V0H100V690H549V620Z"/><path fill="#111111" transform="translate(16026.0 0) scale(1 -1)" d="M699 345Q699 184 613.0 85.0Q527 -14 373.0 -14.0Q219 -14 133.0 85.0Q47 184 47 345Q47 507 133.0 605.5Q219 704 373.0 704.0Q527 704 613.0 605.5Q699 507 699 345ZM603 345Q603 481 542.0 558.5Q481 636 373.0 636.0Q265 636 204.0 558.5Q143 481 143 345Q143 210 204.0 132.0Q265 54 373.0 54.0Q481 54 542.0 132.0Q603 210 603 345Z"/><path fill="#111111" transform="translate(16735.0 0) scale(1 -1)" d="M554 181Q566 45 600 0H505Q480 57 468 173Q455 289 365 296Q349 297 316 297H186V0H100V690H326Q385 690 416 686Q496 676 542.0 630.5Q588 585 588 502Q588 438 553.0 397.0Q518 356 465 339Q543 303 554 181ZM186 367H318Q366 367 385 369Q435 374 465.5 406.0Q496 438 496 494Q496 600 395 616Q370 620 326 620H186Z"/><path fill="#111111" transform="translate(17711.0 0) scale(1 -1)" d="M612 620H366V0H280V620H34V690H612Z"/><path fill="#111111" transform="translate(18333.0 0) scale(1 -1)" d="M554 181Q566 45 600 0H505Q480 57 468 173Q455 289 365 296Q349 297 316 297H186V0H100V690H326Q385 690 416 686Q496 676 542.0 630.5Q588 585 588 502Q588 438 553.0 397.0Q518 356 465 339Q543 303 554 181ZM186 367H318Q366 367 385 369Q435 374 465.5 406.0Q496 438 496 494Q496 600 395 616Q370 620 326 620H186Z"/><path fill="#111111" transform="translate(18949.0 0) scale(1 -1)" d="M612 690V255Q612 213 610 193Q602 101 537.5 43.5Q473 -14 353.0 -14.0Q233 -14 168.5 43.5Q104 101 96 193Q94 213 94 255V690H180V263Q180 220 182 202Q188 134 232.0 94.0Q276 54 353.0 54.0Q430 54 474.0 94.0Q518 134 524 202Q526 220 526 263V690Z"/><path fill="#111111" transform="translate(19619.0 0) scale(1 -1)" d="M314 704Q417 704 476.0 648.0Q535 592 545 499H453Q447 565 409.5 600.5Q372 636 307 636Q249 636 212.5 609.0Q176 582 176 530Q176 475 209.5 446.0Q243 417 324 399Q441 372 496.5 321.5Q552 271 552 185Q552 96 484.5 41.0Q417 -14 315 -14Q201 -14 132.0 41.0Q63 96 52 196H144Q159 128 204.0 91.0Q249 54 317 54Q378 54 419.0 85.0Q460 116 460 169Q460 231 421.5 264.5Q383 298 291 319Q191 342 137.5 386.0Q84 430 84 510Q84 597 150.0 650.5Q216 704 314 704Z"/><path fill="#111111" transform="translate(20247.0 0) scale(1 -1)" d="M612 620H366V0H280V620H34V690H612Z"/><path fill="#111111" transform="translate(20937.0 0) scale(1 -1)" d="M242 255H32V311H242Z"/><path fill="#111111" transform="translate(21189.0 0) scale(1 -1)" d="M446 367Q517 351 552.5 311.5Q588 272 588 203Q588 115 537.0 66.0Q486 17 410 5Q376 0 322 0H100V690H303Q360 690 393 686Q563 663 563 518Q563 407 446 367ZM186 620V393H319Q347 393 374 397Q471 412 471 511Q471 606 365 618Q347 620 310 620ZM383 72Q434 77 465.0 108.0Q496 139 496 194Q496 304 384 319Q353 323 329 323H186V70H335Q357 70 383 72Z"/><path fill="#111111" transform="translate(21858.0 0) scale(1 -1)" d="M456 244H202L121 0H29L277 690H393L631 0H538ZM226 314H433L333 622Z"/><path fill="#111111" transform="translate(22547.0 0) scale(1 -1)" d="M314 704Q417 704 476.0 648.0Q535 592 545 499H453Q447 565 409.5 600.5Q372 636 307 636Q249 636 212.5 609.0Q176 582 176 530Q176 475 209.5 446.0Q243 417 324 399Q441 372 496.5 321.5Q552 271 552 185Q552 96 484.5 41.0Q417 -14 315 -14Q201 -14 132.0 41.0Q63 96 52 196H144Q159 128 204.0 91.0Q249 54 317 54Q378 54 419.0 85.0Q460 116 460 169Q460 231 421.5 264.5Q383 298 291 319Q191 342 137.5 386.0Q84 430 84 510Q84 597 150.0 650.5Q216 704 314 704Z"/><path fill="#111111" transform="translate(23109.0 0) scale(1 -1)" d="M559 70V0H100V690H549V620H186V380H519V310H186V70Z"/><path fill="#111111" transform="translate(23678.0 0) scale(1 -1)" d="M398 686Q523 670 597.0 586.0Q671 502 671 353Q671 205 594.0 112.0Q517 19 393 4Q358 0 305 0H100V690H310Q363 690 398 686ZM384 75Q474 90 525.5 161.5Q577 233 577 353Q577 466 527.5 533.5Q478 601 389 615Q362 620 305 620H186V70H300Q356 70 384 75Z"/><path fill="#111111" transform="translate(24659.0 0) scale(1 -1)" d="M446 367Q517 351 552.5 311.5Q588 272 588 203Q588 115 537.0 66.0Q486 17 410 5Q376 0 322 0H100V690H303Q360 690 393 686Q563 663 563 518Q563 407 446 367ZM186 620V393H319Q347 393 374 397Q471 412 471 511Q471 606 365 618Q347 620 310 620ZM383 72Q434 77 465.0 108.0Q496 139 496 194Q496 304 384 319Q353 323 329 323H186V70H335Q357 70 383 72Z"/><path fill="#111111" transform="translate(25263.0 0) scale(1 -1)" d="M612 690V255Q612 213 610 193Q602 101 537.5 43.5Q473 -14 353.0 -14.0Q233 -14 168.5 43.5Q104 101 96 193Q94 213 94 255V690H180V263Q180 220 182 202Q188 134 232.0 94.0Q276 54 353.0 54.0Q430 54 474.0 94.0Q518 134 524 202Q526 220 526 263V690Z"/><path fill="#111111" transform="translate(25933.0 0) scale(1 -1)" d="M314 704Q417 704 476.0 648.0Q535 592 545 499H453Q447 565 409.5 600.5Q372 636 307 636Q249 636 212.5 609.0Q176 582 176 530Q176 475 209.5 446.0Q243 417 324 399Q441 372 496.5 321.5Q552 271 552 185Q552 96 484.5 41.0Q417 -14 315 -14Q201 -14 132.0 41.0Q63 96 52 196H144Q159 128 204.0 91.0Q249 54 317 54Q378 54 419.0 85.0Q460 116 460 169Q460 231 421.5 264.5Q383 298 291 319Q191 342 137.5 386.0Q84 430 84 510Q84 597 150.0 650.5Q216 704 314 704Z"/><path fill="#111111" transform="translate(26495.0 0) scale(1 -1)" d="M186 0H100V690H186Z"/><path fill="#111111" transform="translate(26691.0 0) scale(1 -1)" d="M640 0H508L183 606Q186 484 186 345V0H100V690H232L557 84Q554 205 554 345V690H638Z"/><path fill="#111111" transform="translate(27341.0 0) scale(1 -1)" d="M559 70V0H100V690H549V620H186V380H519V310H186V70Z"/><path fill="#111111" transform="translate(27958.0 0) scale(1 -1)" d="M314 704Q417 704 476.0 648.0Q535 592 545 499H453Q447 565 409.5 600.5Q372 636 307 636Q249 636 212.5 609.0Q176 582 176 530Q176 475 209.5 446.0Q243 417 324 399Q441 372 496.5 321.5Q552 271 552 185Q552 96 484.5 41.0Q417 -14 315 -14Q201 -14 132.0 41.0Q63 96 52 196H144Q159 128 204.0 91.0Q249 54 317 54Q378 54 419.0 85.0Q460 116 460 169Q460 231 421.5 264.5Q383 298 291 319Q191 342 137.5 386.0Q84 430 84 510Q84 597 150.0 650.5Q216 704 314 704Z"/><path fill="#111111" transform="translate(28568.0 0) scale(1 -1)" d="M314 704Q417 704 476.0 648.0Q535 592 545 499H453Q447 565 409.5 600.5Q372 636 307 636Q249 636 212.5 609.0Q176 582 176 530Q176 475 209.5 446.0Q243 417 324 399Q441 372 496.5 321.5Q552 271 552 185Q552 96 484.5 41.0Q417 -14 315 -14Q201 -14 132.0 41.0Q63 96 52 196H144Q159 128 204.0 91.0Q249 54 317 54Q378 54 419.0 85.0Q460 116 460 169Q460 231 421.5 264.5Q383 298 291 319Q191 342 137.5 386.0Q84 430 84 510Q84 597 150.0 650.5Q216 704 314 704Z"/><path fill="#111111" transform="translate(29130.0 0) scale(1 -1)" d="M559 70V0H100V690H549V620H186V380H519V310H186V70Z"/><path fill="#111111" transform="translate(29747.0 0) scale(1 -1)" d="M314 704Q417 704 476.0 648.0Q535 592 545 499H453Q447 565 409.5 600.5Q372 636 307 636Q249 636 212.5 609.0Q176 582 176 530Q176 475 209.5 446.0Q243 417 324 399Q441 372 496.5 321.5Q552 271 552 185Q552 96 484.5 41.0Q417 -14 315 -14Q201 -14 132.0 41.0Q63 96 52 196H144Q159 128 204.0 91.0Q249 54 317 54Q378 54 419.0 85.0Q460 116 460 169Q460 231 421.5 264.5Q383 298 291 319Q191 342 137.5 386.0Q84 430 84 510Q84 597 150.0 650.5Q216 704 314 704Z"/><path fill="#111111" transform="translate(30372.0 0) scale(1 -1)" d="M55.0 96.0Q73 114 101.0 114.0Q129 114 147.0 96.0Q165 78 165.0 50.0Q165 22 147.0 4.0Q129 -14 101.0 -14.0Q73 -14 55.0 4.0Q37 22 37.0 50.0Q37 78 55.0 96.0Z"/></g></svg>